Peel.ufo
<glyph name="parenleft" format="1">
  <advance width="657"/>
  <unicode hex="0028"/>
  <outline>
    <contour>
      <point x="456" y="-108" type="curve"/>
      <point x="562" y="4" type="line"/>
      <point x="363" y="143"/>
      <point x="263" y="453"/>
      <point x="263" y="760" type="curve" smooth="yes"/>
      <point x="263" y="1067"/>
      <point x="363" y="1377"/>
      <point x="562" y="1516" type="curve"/>
      <point x="456" y="1628" type="line"/>
      <point x="198" y="1460"/>
      <point x="70" y="1109"/>
      <point x="70" y="760" type="curve" smooth="yes"/>
      <point x="70" y="411"/>
      <point x="198" y="60"/>
    </contour>
  </outline>
</glyph>
<glyph name="comma" format="1">
  <advance width="463"/>
  <unicode hex="002C"/>
  <outline>
    <contour>
      <point x="150" y="-232" type="line"/>
      <point x="254" y="-232"/>
      <point x="387" y="-41"/>
      <point x="387" y="93" type="curve" smooth="yes"/>
      <point x="387" y="193"/>
      <point x="314" y="239"/>
      <point x="246" y="239" type="curve" smooth="yes"/>
      <point x="178" y="239"/>
      <point x="113" y="192"/>
      <point x="113" y="101" type="curve" smooth="yes"/>
      <point x="113" y="49"/>
      <point x="144" y="-1"/>
      <point x="212" y="-22" type="curve"/>
      <point x="212" y="-101"/>
      <point x="188" y="-153"/>
      <point x="127" y="-209" type="curve"/>
    </contour>
  </outline>
</glyph>
<glyph name="one" format="1">
  <advance width="622"/>
  <unicode hex="0031"/>
  <outline>
    <contour>
      <point x="271" y="0" type="line"/>
      <point x="452" y="0" type="line"/>
      <point x="452" y="1522" type="line"/>
      <point x="289" y="1522" type="line"/>
      <point x="209" y="1464"/>
      <point x="111" y="1431"/>
      <point x="22" y="1391" type="curve"/>
      <point x="22" y="1220" type="line"/>
      <point x="95" y="1242"/>
      <point x="190" y="1283"/>
      <point x="271" y="1334" type="curve"/>
    </contour>
  </outline>
</glyph>
<glyph name="greater" format="1">
  <advance width="981"/>
  <unicode hex="003E"/>
  <outline>
    <contour>
      <point x="94" y="75" type="line"/>
      <point x="894" y="496" type="line"/>
      <point x="894" y="669" type="line"/>
      <point x="94" y="1086" type="line"/>
      <point x="94" y="880" type="line"/>
      <point x="740" y="576" type="line"/>
      <point x="94" y="288" type="line"/>
    </contour>
  </outline>
</glyph>
<glyph name="A" format="1">
  <advance width="1536"/>
  <unicode hex="0041"/>
  <outline>
    <contour>
      <point x="66" y="0" type="line"/>
      <point x="264" y="0" type="line"/>
      <point x="466" y="487" type="line"/>
      <point x="1070" y="487" type="line"/>
      <point x="1283" y="0" type="line"/>
      <point x="1474" y="0" type="line"/>
      <point x="1474" y="0"/>
      <point x="823" y="1516"/>
      <point x="823" y="1516" type="curve"/>
      <point x="680" y="1516" type="line"/>
    </contour>
    <contour>
      <point x="539" y="662" type="line"/>
      <point x="757" y="1265" type="line"/>
      <point x="994" y="662" type="line"/>
    </contour>
  </outline>
</glyph>
<glyph name="C" format="1">
  <advance width="1533"/>
  <unicode hex="0043"/>
  <outline>
    <contour>
      <point x="904" y="-19" type="curve" smooth="yes"/>
      <point x="1059" y="-19"/>
      <point x="1213.0" y="21.0"/>
      <point x="1390.0" y="115.0" type="curve"/>
      <point x="1390" y="295" type="line"/>
      <point x="1357" y="295" type="line"/>
      <point x="1225" y="203"/>
      <point x="1063" y="163"/>
      <point x="915" y="163" type="curve" smooth="yes"/>
      <point x="607" y="163"/>
      <point x="321" y="354"/>
      <point x="321" y="756" type="curve" smooth="yes"/>
      <point x="321" y="1127"/>
      <point x="603" y="1354"/>
      <point x="921" y="1354" type="curve" smooth="yes"/>
      <point x="1054" y="1354"/>
      <point x="1205" y="1328"/>
      <point x="1359" y="1245" type="curve"/>
      <point x="1390" y="1245" type="line"/>
      <point x="1390.0" y="1433.0" type="line"/>
      <point x="1237.0" y="1498.0"/>
      <point x="1066.0" y="1536.0"/>
      <point x="919.0" y="1536.0" type="curve" smooth="yes"/>
      <point x="480.0" y="1536.0"/>
      <point x="105.0" y="1239.0"/>
      <point x="105.0" y="759.0" type="curve" smooth="yes"/>
      <point x="105.0" y="327.0"/>
      <point x="430" y="-19"/>
    </contour>
  </outline>
</glyph>
<glyph name="D" format="1">
  <advance width="1606"/>
  <unicode hex="0044"/>
  <outline>
    <contour>
      <point x="358" y="177" type="line"/>
      <point x="358" y="1337" type="line"/>
      <point x="752" y="1337" type="line" smooth="yes"/>
      <point x="1046" y="1337"/>
      <point x="1281" y="1198"/>
      <point x="1281" y="760" type="curve" smooth="yes"/>
      <point x="1281" y="373"/>
      <point x="1046" y="177"/>
      <point x="703" y="177" type="curve" smooth="yes"/>
    </contour>
    <contour>
      <point x="167" y="0" type="line"/>
      <point x="745" y="0" type="line" smooth="yes"/>
      <point x="1222" y="0"/>
      <point x="1491" y="357"/>
      <point x="1491" y="763" type="curve" smooth="yes"/>
      <point x="1491" y="1207"/>
      <point x="1243" y="1516"/>
      <point x="778" y="1516" type="curve" smooth="yes"/>
      <point x="167" y="1516" type="line"/>
    </contour>
  </outline>
</glyph>
<glyph name="E" format="1">
  <advance width="1098"/>
  <unicode hex="0045"/>
  <outline>
    <contour>
      <point x="167" y="0" type="line"/>
      <point x="1012" y="0" type="line"/>
      <point x="1012" y="177" type="line"/>
      <point x="358" y="177" type="line"/>
      <point x="358" y="682" type="line"/>
      <point x="985" y="682" type="line"/>
      <point x="985" y="856" type="line"/>
      <point x="358" y="856" type="line"/>
      <point x="358" y="1339" type="line"/>
      <point x="999" y="1339" type="line"/>
      <point x="999" y="1516" type="line"/>
      <point x="167" y="1516" type="line"/>
    </contour>
  </outline>
</glyph>
<glyph name="H" format="1">
  <advance width="1572"/>
  <unicode hex="0048"/>
  <outline>
    <contour>
      <point x="170" y="0" type="line"/>
      <point x="363" y="0" type="line"/>
      <point x="363" y="687" type="line"/>
      <point x="1209" y="687" type="line"/>
      <point x="1209" y="0" type="line"/>
      <point x="1402" y="0" type="line"/>
      <point x="1402" y="1516" type="line"/>
      <point x="1209" y="1516" type="line"/>
      <point x="1209" y="854" type="line"/>
      <point x="363" y="854" type="line"/>
      <point x="363" y="1516" type="line"/>
      <point x="170" y="1516" type="line"/>
    </contour>
  </outline>
</glyph>
<glyph name="I" format="1">
  <advance width="522"/>
  <unicode hex="0049"/>
  <outline>
    <contour>
      <point x="167" y="0" type="line"/>
      <point x="358" y="0" type="line"/>
      <point x="358" y="1516" type="line"/>
      <point x="167" y="1516" type="line"/>
    </contour>
  </outline>
</glyph>
<glyph name="N" format="1">
  <advance width="1681"/>
  <unicode hex="004E"/>
  <outline>
    <contour>
      <point x="169" y="0" type="line"/>
      <point x="351" y="0" type="line"/>
      <point x="351" y="1193" type="line"/>
      <point x="1348" y="0" type="line"/>
      <point x="1512" y="0" type="line"/>
      <point x="1512" y="1516" type="line"/>
      <point x="1327" y="1516" type="line"/>
      <point x="1327" y="311" type="line"/>
      <point x="323" y="1516" type="line"/>
      <point x="169" y="1516" type="line"/>
    </contour>
  </outline>
</glyph>
<glyph name="O" format="1">
  <advance width="1777"/>
  <unicode hex="004F"/>
  <outline>
    <contour>
      <point x="888" y="163" type="curve" smooth="yes"/>
      <point x="563" y="163"/>
      <point x="324" y="430"/>
      <point x="324" y="759" type="curve" smooth="yes"/>
      <point x="324" y="1088"/>
      <point x="563" y="1354"/>
      <point x="888" y="1354" type="curve" smooth="yes"/>
      <point x="1203" y="1354"/>
      <point x="1453" y="1088"/>
      <point x="1453" y="759" type="curve" smooth="yes"/>
      <point x="1453" y="430"/>
      <point x="1213" y="163"/>
    </contour>
    <contour>
      <point x="888" y="-19" type="curve" smooth="yes"/>
      <point x="1312" y="-19"/>
      <point x="1669" y="331"/>
      <point x="1669" y="759" type="curve" smooth="yes"/>
      <point x="1669" y="1189"/>
      <point x="1312" y="1536"/>
      <point x="888" y="1536" type="curve" smooth="yes"/>
      <point x="463" y="1536"/>
      <point x="108" y="1189"/>
      <point x="108" y="759" type="curve" smooth="yes"/>
      <point x="108" y="331"/>
      <point x="463" y="-19"/>
    </contour>
  </outline>
</glyph>
<glyph name="Q" format="1">
  <advance width="1757"/>
  <unicode hex="0051"/>
  <outline>
    <contour>
      <point x="1219" y="-435" type="curve"/>
      <point x="1407" y="-325" type="line"/>
      <point x="1407" y="-298" type="line"/>
      <point x="1407" y="-297"/>
      <point x="1399" y="-298"/>
      <point x="1398" y="-298" type="curve" smooth="yes"/>
      <point x="1162" y="-298"/>
      <point x="1015" y="-11"/>
      <point x="1015" y="-11" type="curve"/>
      <point x="1377" y="54"/>
      <point x="1650" y="372"/>
      <point x="1650" y="753" type="curve" smooth="yes"/>
      <point x="1650" y="1181"/>
      <point x="1301" y="1529"/>
      <point x="877" y="1529" type="curve" smooth="yes"/>
      <point x="452" y="1529"/>
      <point x="105" y="1181"/>
      <point x="105" y="753" type="curve" smooth="yes"/>
      <point x="105" y="340"/>
      <point x="425" y="3"/>
      <point x="826" y="-24" type="curve"/>
      <point x="826" y="-24"/>
      <point x="964" y="-318"/>
    </contour>
    <contour>
      <point x="877" y="161" type="curve" smooth="yes"/>
      <point x="562" y="161"/>
      <point x="305" y="428"/>
      <point x="305" y="755" type="curve" smooth="yes"/>
      <point x="305" y="1083"/>
      <point x="562" y="1350"/>
      <point x="877" y="1350" type="curve" smooth="yes"/>
      <point x="1192" y="1350"/>
      <point x="1451" y="1083"/>
      <point x="1451" y="755" type="curve" smooth="yes"/>
      <point x="1451" y="428"/>
      <point x="1192" y="161"/>
    </contour>
  </outline>
</glyph>
<glyph name="R" format="1">
  <advance width="1158"/>
  <unicode hex="0052"/>
  <outline>
    <contour>
      <point x="169" y="0" type="line"/>
      <point x="360" y="0" type="line"/>
      <point x="360" y="695" type="line"/>
      <point x="461" y="695" type="line" smooth="yes"/>
      <point x="480" y="695"/>
      <point x="499" y="696"/>
      <point x="517" y="696" type="curve" smooth="yes"/>
      <point x="517" y="696"/>
      <point x="761" y="148"/>
      <point x="849" y="0" type="curve"/>
      <point x="1042" y="0" type="line"/>
      <point x="1043" y="51" type="line"/>
      <point x="924" y="249"/>
      <point x="793" y="485"/>
      <point x="702" y="723" type="curve"/>
      <point x="907" y="787"/>
      <point x="996" y="931"/>
      <point x="996" y="1118" type="curve" smooth="yes"/>
      <point x="996" y="1401"/>
      <point x="781" y="1516"/>
      <point x="509" y="1516" type="curve" smooth="yes"/>
      <point x="169" y="1516" type="line"/>
    </contour>
    <contour>
      <point x="360" y="856" type="line"/>
      <point x="360" y="1352" type="line"/>
      <point x="488" y="1352" type="line" smooth="yes"/>
      <point x="748" y="1352"/>
      <point x="795" y="1231"/>
      <point x="795" y="1107" type="curve" smooth="yes"/>
      <point x="795" y="879"/>
      <point x="620" y="856"/>
      <point x="408" y="856" type="curve" smooth="yes"/>
    </contour>
  </outline>
</glyph>
<glyph name="T" format="1">
  <advance width="1329"/>
  <unicode hex="0054"/>
  <outline>
    <contour>
      <point x="568" y="0" type="line"/>
      <point x="760" y="0" type="line"/>
      <point x="760" y="1340" type="line"/>
      <point x="1282" y="1340" type="line"/>
      <point x="1282" y="1516" type="line"/>
      <point x="48" y="1516" type="line"/>
      <point x="48" y="1340" type="line"/>
      <point x="568" y="1340" type="line"/>
    </contour>
  </outline>
</glyph>
<glyph name="W" format="1">
  <advance width="2357"/>
  <unicode hex="0057"/>
  <outline>
    <contour>
      <point x="1640" y="-25" type="line"/>
      <point x="1695" y="-25" type="line"/>
      <point x="2255" y="1516" type="line"/>
      <point x="2053" y="1516" type="line"/>
      <point x="1667" y="397" type="line"/>
      <point x="1275" y="1516" type="line"/>
      <point x="1086" y="1516" type="line"/>
      <point x="679" y="405" type="line"/>
      <point x="313" y="1516" type="line"/>
      <point x="101" y="1516" type="line"/>
      <point x="658" y="-22" type="line"/>
      <point x="706" y="-22" type="line"/>
      <point x="1177" y="1234" type="line"/>
    </contour>
  </outline>
</glyph>
<glyph name="Z" format="1">
  <advance width="1422"/>
  <unicode hex="005A"/>
  <outline>
    <contour>
      <point x="100" y="0" type="line"/>
      <point x="1316" y="0" type="line"/>
      <point x="1316" y="168" type="line"/>
      <point x="444" y="168" type="line"/>
      <point x="1313" y="1507" type="line"/>
      <point x="1305" y="1516" type="line"/>
      <point x="148" y="1516" type="line"/>
      <point x="148" y="1352" type="line"/>
      <point x="969" y="1352" type="line"/>
      <point x="98" y="10" type="line"/>
    </contour>
  </outline>
</glyph>
<glyph name="b" format="1">
  <advance width="1077"/>
  <unicode hex="0062"/>
  <outline>
    <contour>
      <point x="478" y="-18" type="curve" smooth="yes"/>
      <point x="836" y="-18"/>
      <point x="1040" y="212"/>
      <point x="1040" y="545" type="curve" smooth="yes"/>
      <point x="1040" y="843"/>
      <point x="846" y="1017"/>
      <point x="622" y="1017" type="curve" smooth="yes"/>
      <point x="531" y="1017"/>
      <point x="435" y="990"/>
      <point x="344" y="927" type="curve"/>
      <point x="344" y="1490" type="line"/>
      <point x="165" y="1490" type="line"/>
      <point x="165" y="49" type="line"/>
      <point x="165" y="49"/>
      <point x="302" y="-18"/>
    </contour>
    <contour>
      <point x="484" y="115" type="curve" smooth="yes"/>
      <point x="440" y="115"/>
      <point x="390" y="115"/>
      <point x="344" y="136" type="curve"/>
      <point x="344" y="767" type="line"/>
      <point x="344" y="767"/>
      <point x="443" y="869"/>
      <point x="614" y="869" type="curve" smooth="yes"/>
      <point x="765" y="869"/>
      <point x="853" y="732"/>
      <point x="853" y="532" type="curve" smooth="yes"/>
      <point x="853" y="299"/>
      <point x="711" y="115"/>
    </contour>
  </outline>
</glyph>
<glyph name="d" format="1">
  <advance width="1082"/>
  <unicode hex="0064"/>
  <outline>
    <contour>
      <point x="595" y="-18" type="curve" smooth="yes"/>
      <point x="770" y="-18"/>
      <point x="911" y="49"/>
      <point x="911" y="49" type="curve"/>
      <point x="911" y="1490" type="line"/>
      <point x="732" y="1490" type="line"/>
      <point x="732" y="953" type="line"/>
      <point x="660" y="997"/>
      <point x="579" y="1017"/>
      <point x="498" y="1017" type="curve" smooth="yes"/>
      <point x="198" y="1017"/>
      <point x="37" y="768"/>
      <point x="37" y="515" type="curve" smooth="yes"/>
      <point x="37" y="250"/>
      <point x="212" y="-18"/>
    </contour>
    <contour>
      <point x="608" y="115" type="curve" smooth="yes"/>
      <point x="344" y="115"/>
      <point x="223" y="309"/>
      <point x="223" y="510" type="curve" smooth="yes"/>
      <point x="223" y="695"/>
      <point x="328" y="871"/>
      <point x="521" y="871" type="curve" smooth="yes"/>
      <point x="605" y="871"/>
      <point x="687" y="840"/>
      <point x="732" y="793" type="curve"/>
      <point x="732" y="136" type="line"/>
      <point x="691" y="117"/>
      <point x="648" y="115"/>
    </contour>
  </outline>
</glyph>
<glyph name="f" format="1">
  <advance width="710"/>
  <unicode hex="0066"/>
  <outline>
    <contour>
      <point x="198" y="0" type="line"/>
      <point x="377" y="0" type="line"/>
      <point x="377" y="854" type="line"/>
      <point x="555" y="854" type="line"/>
      <point x="555" y="998" type="line"/>
      <point x="377" y="998" type="line"/>
      <point x="377" y="1072" type="line" smooth="yes"/>
      <point x="377" y="1214"/>
      <point x="428" y="1275"/>
      <point x="538" y="1275" type="curve" smooth="yes"/>
      <point x="573" y="1275"/>
      <point x="614" y="1266"/>
      <point x="666" y="1244" type="curve"/>
      <point x="666" y="1404" type="line"/>
      <point x="604" y="1424"/>
      <point x="550" y="1433"/>
      <point x="500" y="1433" type="curve" smooth="yes"/>
      <point x="296" y="1433"/>
      <point x="194" y="1289"/>
      <point x="194" y="1072" type="curve" smooth="yes"/>
      <point x="194" y="998" type="line"/>
      <point x="64" y="998" type="line"/>
      <point x="64" y="860" type="line"/>
      <point x="198" y="860" type="line"/>
    </contour>
  </outline>
</glyph>
<glyph name="i" format="1">
  <advance width="473"/>
  <unicode hex="0069"/>
  <outline>
    <contour>
      <point x="148" y="0" type="line"/>
      <point x="325" y="0" type="line"/>
      <point x="325" y="998" type="line"/>
      <point x="148" y="998" type="line"/>
    </contour>
    <contour>
      <point x="237" y="1157" type="curve" smooth="yes"/>
      <point x="319" y="1157"/>
      <point x="361" y="1215"/>
      <point x="361" y="1277" type="curve" smooth="yes"/>
      <point x="361" y="1337"/>
      <point x="319" y="1398"/>
      <point x="237" y="1398" type="curve" smooth="yes"/>
      <point x="155" y="1398"/>
      <point x="112" y="1337"/>
      <point x="112" y="1277" type="curve" smooth="yes"/>
      <point x="112" y="1215"/>
      <point x="155" y="1157"/>
    </contour>
  </outline>
</glyph>
<glyph name="m" format="1">
  <advance width="1784"/>
  <unicode hex="006D"/>
  <outline>
    <contour>
      <point x="166" y="0" type="line"/>
      <point x="345" y="0" type="line"/>
      <point x="345" y="709" type="line"/>
      <point x="394" y="777"/>
      <point x="520" y="859"/>
      <point x="632" y="859" type="curve" smooth="yes"/>
      <point x="718" y="859"/>
      <point x="800" y="794"/>
      <point x="800" y="675" type="curve" smooth="yes"/>
      <point x="800" y="0" type="line"/>
      <point x="978" y="0" type="line"/>
      <point x="978" y="697" type="line"/>
      <point x="1040" y="789"/>
      <point x="1158" y="859"/>
      <point x="1273" y="859" type="curve" smooth="yes"/>
      <point x="1396" y="859"/>
      <point x="1446" y="770"/>
      <point x="1446" y="661" type="curve" smooth="yes"/>
      <point x="1446" y="0" type="line"/>
      <point x="1625" y="0" type="line"/>
      <point x="1625" y="661" type="line" smooth="yes"/>
      <point x="1625" y="924"/>
      <point x="1452" y="1015"/>
      <point x="1294" y="1015" type="curve" smooth="yes"/>
      <point x="1257" y="1015"/>
      <point x="1094" y="1012"/>
      <point x="940" y="815" type="curve"/>
      <point x="895" y="944"/>
      <point x="795" y="1015"/>
      <point x="660" y="1015" type="curve" smooth="yes"/>
      <point x="604" y="1015"/>
      <point x="475" y="1006"/>
      <point x="340" y="839" type="curve"/>
      <point x="340" y="998" type="line"/>
      <point x="166" y="998" type="line"/>
    </contour>
  </outline>
</glyph>
<glyph name="n" format="1">
  <advance width="1146"/>
  <unicode hex="006E"/>
  <outline>
    <contour>
      <point x="173" y="0" type="line"/>
      <point x="352" y="0" type="line"/>
      <point x="352" y="709" type="line"/>
      <point x="405" y="787"/>
      <point x="538" y="867"/>
      <point x="648" y="867" type="curve" smooth="yes"/>
      <point x="737" y="867"/>
      <point x="808" y="814"/>
      <point x="808" y="675" type="curve" smooth="yes"/>
      <point x="808" y="0" type="line"/>
      <point x="986" y="0" type="line"/>
      <point x="986" y="679" type="line" smooth="yes"/>
      <point x="986" y="879"/>
      <point x="861" y="1015"/>
      <point x="675" y="1015" type="curve" smooth="yes"/>
      <point x="619" y="1015"/>
      <point x="483" y="994"/>
      <point x="348" y="840" type="curve"/>
      <point x="348" y="998" type="line"/>
      <point x="173" y="998" type="line"/>
    </contour>
  </outline>
</glyph>
<glyph name="p" format="1">
  <advance width="1097"/>
  <unicode hex="0070"/>
  <outline>
    <contour>
      <point x="166" y="-405" type="line"/>
      <point x="346" y="-405" type="line"/>
      <point x="346" y="49" type="line"/>
      <point x="346" y="49"/>
      <point x="439" y="-21"/>
      <point x="584" y="-21" type="curve" smooth="yes"/>
      <point x="885" y="-21"/>
      <point x="1053" y="262"/>
      <point x="1053" y="527" type="curve" smooth="yes"/>
      <point x="1053" y="776"/>
      <point x="905" y="1016"/>
      <point x="599" y="1016" type="curve" smooth="yes"/>
      <point x="520" y="1016"/>
      <point x="432" y="974"/>
      <point x="346" y="882" type="curve"/>
      <point x="346" y="998" type="line"/>
      <point x="166" y="998" type="line"/>
    </contour>
    <contour>
      <point x="561" y="116" type="curve" smooth="yes"/>
      <point x="426" y="116"/>
      <point x="346" y="189"/>
      <point x="346" y="189" type="curve"/>
      <point x="346" y="767" type="line"/>
      <point x="346" y="767"/>
      <point x="441" y="854"/>
      <point x="582" y="854" type="curve" smooth="yes"/>
      <point x="771" y="854"/>
      <point x="859" y="694"/>
      <point x="859" y="526" type="curve" smooth="yes"/>
      <point x="859" y="338"/>
      <point x="769" y="116"/>
    </contour>
  </outline>
</glyph>
<glyph name="q" format="1">
  <advance width="1081"/>
  <unicode hex="0071"/>
  <outline>
    <contour>
      <point x="739" y="-405" type="line"/>
      <point x="917" y="-405" type="line"/>
      <point x="917" y="998" type="line"/>
      <point x="739" y="998" type="line"/>
      <point x="739" y="897" type="line"/>
      <point x="652" y="979"/>
      <point x="562" y="1015"/>
      <point x="476" y="1015" type="curve" smooth="yes"/>
      <point x="247" y="1015"/>
      <point x="42" y="809"/>
      <point x="42" y="518" type="curve" smooth="yes"/>
      <point x="42" y="252"/>
      <point x="220" y="-21"/>
      <point x="548" y="-21" type="curve" smooth="yes"/>
      <point x="666" y="-21"/>
      <point x="739" y="47"/>
      <point x="739" y="47" type="curve"/>
    </contour>
    <contour>
      <point x="562" y="138" type="curve" smooth="yes"/>
      <point x="356" y="138"/>
      <point x="234" y="330"/>
      <point x="234" y="507" type="curve" smooth="yes"/>
      <point x="234" y="724"/>
      <point x="363" y="862"/>
      <point x="517" y="862" type="curve" smooth="yes"/>
      <point x="586" y="862"/>
      <point x="664" y="838"/>
      <point x="739" y="784" type="curve"/>
      <point x="739" y="189" type="line"/>
      <point x="739" y="189"/>
      <point x="682" y="138"/>
    </contour>
  </outline>
</glyph>
<glyph name="s" format="1">
  <advance width="884"/>
  <unicode hex="0073"/>
  <outline>
    <contour>
      <point x="456" y="-19" type="curve" smooth="yes"/>
      <point x="648" y="-19"/>
      <point x="762" y="104"/>
      <point x="762" y="246" type="curve" smooth="yes"/>
      <point x="762" y="331"/>
      <point x="723" y="422"/>
      <point x="599" y="501" type="curve" smooth="yes"/>
      <point x="416" y="619" type="line" smooth="yes"/>
      <point x="326" y="677"/>
      <point x="311" y="718"/>
      <point x="311" y="751" type="curve" smooth="yes"/>
      <point x="311" y="830"/>
      <point x="367" y="872"/>
      <point x="468" y="872" type="curve" smooth="yes"/>
      <point x="554" y="872"/>
      <point x="639" y="833"/>
      <point x="692" y="803" type="curve"/>
      <point x="729" y="946" type="line"/>
      <point x="660" y="988"/>
      <point x="546" y="1017"/>
      <point x="457" y="1017" type="curve" smooth="yes"/>
      <point x="243" y="1017"/>
      <point x="130" y="891"/>
      <point x="130" y="755" type="curve" smooth="yes"/>
      <point x="130" y="661"/>
      <point x="185" y="571"/>
      <point x="301" y="497" type="curve" smooth="yes"/>
      <point x="498" y="371" type="line" smooth="yes"/>
      <point x="578" y="320"/>
      <point x="591" y="282"/>
      <point x="591" y="243" type="curve" smooth="yes"/>
      <point x="591" y="169"/>
      <point x="529" y="135"/>
      <point x="448" y="135" type="curve" smooth="yes"/>
      <point x="343" y="135"/>
      <point x="223" y="181"/>
      <point x="147" y="235" type="curve"/>
      <point x="128" y="88" type="line"/>
      <point x="196" y="20"/>
      <point x="333" y="-19"/>
    </contour>
  </outline>
</glyph>
<glyph name="u" format="1">
  <advance width="1126"/>
  <unicode hex="0075"/>
  <outline>
    <contour>
      <point x="478" y="-18" type="curve" smooth="yes"/>
      <point x="584" y="-18"/>
      <point x="693" y="30"/>
      <point x="780" y="129" type="curve"/>
      <point x="780" y="0" type="line"/>
      <point x="955" y="0" type="line"/>
      <point x="955" y="998" type="line"/>
      <point x="778" y="998" type="line"/>
      <point x="778" y="272" type="line"/>
      <point x="722" y="186"/>
      <point x="611" y="127"/>
      <point x="512" y="127" type="curve" smooth="yes"/>
      <point x="418" y="127"/>
      <point x="339" y="183"/>
      <point x="339" y="325" type="curve" smooth="yes"/>
      <point x="339" y="998" type="line"/>
      <point x="160" y="998" type="line"/>
      <point x="160" y="334" type="line" smooth="yes"/>
      <point x="160" y="101"/>
      <point x="312" y="-18"/>
    </contour>
  </outline>
</glyph>
<glyph name="v" format="1">
  <advance width="1049"/>
  <unicode hex="0076"/>
  <outline>
    <contour>
      <point x="508" y="0" type="line"/>
      <point x="538" y="0" type="line"/>
      <point x="992" y="998" type="line"/>
      <point x="789" y="998" type="line"/>
      <point x="525" y="341" type="line"/>
      <point x="258" y="998" type="line"/>
      <point x="58" y="998" type="line"/>
    </contour>
  </outline>
</glyph>
<glyph name="w" format="1">
  <advance width="1495"/>
  <unicode hex="0077"/>
  <outline>
    <contour>
      <point x="425" y="0" type="line"/>
      <point x="468" y="0" type="line"/>
      <point x="752" y="761" type="line"/>
      <point x="1033" y="0" type="line"/>
      <point x="1070" y="0" type="line"/>
      <point x="1394" y="998" type="line"/>
      <point x="1209" y="998" type="line"/>
      <point x="1043" y="392" type="line"/>
      <point x="829" y="998" type="line"/>
      <point x="664" y="998" type="line"/>
      <point x="457" y="398" type="line"/>
      <point x="302" y="998" type="line"/>
      <point x="101" y="998" type="line"/>
    </contour>
  </outline>
</glyph>
<glyph name="x" format="1">
  <advance width="1266"/>
  <unicode hex="0078"/>
  <outline>
    <contour>
      <point x="129" y="0" type="line"/>
      <point x="357" y="0" type="line"/>
      <point x="638" y="368" type="line"/>
      <point x="933" y="0" type="line"/>
      <point x="1137" y="0" type="line"/>
      <point x="740" y="499" type="line"/>
      <point x="1123" y="998" type="line"/>
      <point x="900" y="998" type="line"/>
      <point x="628" y="643" type="line"/>
      <point x="346" y="998" type="line"/>
      <point x="141" y="998" type="line"/>
      <point x="526" y="513" type="line"/>
    </contour>
  </outline>
</glyph>
<glyph name="y" format="1">
  <advance width="1078"/>
  <unicode hex="0079"/>
  <outline>
    <contour>
      <point x="254" y="-268" type="line"/>
      <point x="451" y="-268" type="line"/>
      <point x="1044" y="998" type="line"/>
      <point x="851" y="998" type="line"/>
      <point x="586" y="406" type="line"/>
      <point x="314" y="998" type="line"/>
      <point x="96" y="998" type="line"/>
      <point x="485" y="246" type="line"/>
    </contour>
  </outline>
</glyph>
<glyph name="braceright" format="1">
  <advance width="740"/>
  <unicode hex="007D"/>
  <outline>
    <contour>
      <point x="91" y="-266" type="line"/>
      <point x="278" y="-266"/>
      <point x="463" y="-177"/>
      <point x="463" y="47" type="curve" smooth="yes"/>
      <point x="463" y="442" type="line" smooth="yes"/>
      <point x="463" y="587"/>
      <point x="537" y="643"/>
      <point x="633" y="652" type="curve"/>
      <point x="643" y="652"/>
      <point x="649" y="653"/>
      <point x="659" y="653" type="curve"/>
      <point x="659" y="818" type="line"/>
      <point x="649" y="818"/>
      <point x="643" y="819"/>
      <point x="633" y="819" type="curve"/>
      <point x="537" y="828"/>
      <point x="463" y="885"/>
      <point x="463" y="1031" type="curve" smooth="yes"/>
      <point x="463" y="1425" type="line"/>
      <point x="464" y="1651"/>
      <point x="278" y="1737"/>
      <point x="91" y="1737" type="curve"/>
      <point x="91" y="1570" type="line"/>
      <point x="198" y="1570"/>
      <point x="286" y="1515"/>
      <point x="286" y="1357" type="curve" smooth="yes"/>
      <point x="286" y="964" type="line" smooth="yes"/>
      <point x="286" y="860"/>
      <point x="354" y="787"/>
      <point x="459" y="736" type="curve"/>
      <point x="354" y="687"/>
      <point x="286" y="612"/>
      <point x="286" y="508" type="curve" smooth="yes"/>
      <point x="286" y="115" type="line" smooth="yes"/>
      <point x="286" y="-43"/>
      <point x="198" y="-99"/>
      <point x="91" y="-99" type="curve"/>
    </contour>
  </outline>
</glyph>
<glyph name="Acircumflex" format="1">
  <advance width="1527"/>
  <unicode hex="00C2"/>
  <outline>
    <contour>
      <point x="464" y="1669" type="curve"/>
      <point x="465" y="1669"/>
      <point x="465" y="1669"/>
      <point x="468" y="1670" type="curve"/>
      <point x="763" y="1876" type="line"/>
      <point x="1059" y="1670" type="line"/>
      <point x="1062" y="1669"/>
      <point x="1063" y="1669"/>
      <point x="1064" y="1669" type="curve" smooth="yes"/>
      <point x="1065" y="1669"/>
      <point x="1066" y="1670"/>
      <point x="1066" y="1671" type="curve"/>
      <point x="1066" y="1674" type="line"/>
      <point x="802" y="2081" type="line"/>
      <point x="795" y="2089"/>
      <point x="777" y="2096"/>
      <point x="763" y="2096" type="curve" smooth="yes"/>
      <point x="749" y="2096"/>
      <point x="734" y="2089"/>
      <point x="726" y="2081" type="curve"/>
      <point x="461" y="1674" type="line"/>
      <point x="460" y="1674"/>
      <point x="460" y="1672"/>
      <point x="460" y="1671" type="curve" smooth="yes"/>
      <point x="460" y="1670"/>
      <point x="462" y="1669"/>
    </contour>
    <contour>
      <point x="60" y="0" type="line"/>
      <point x="258" y="0" type="line"/>
      <point x="460" y="487" type="line"/>
      <point x="1064" y="487" type="line"/>
      <point x="1277" y="0" type="line"/>
      <point x="1463" y="0" type="line"/>
      <point x="1466" y="3" type="line"/>
      <point x="817" y="1516" type="line"/>
      <point x="674" y="1516" type="line"/>
    </contour>
    <contour>
      <point x="533" y="662" type="line"/>
      <point x="751" y="1265" type="line"/>
      <point x="988" y="662" type="line"/>
    </contour>
  </outline>
</glyph>
<glyph name="Idieresis" format="1">
  <advance width="429"/>
  <unicode hex="00CF"/>
  <outline>
    <contour>
      <point x="26" y="1667" type="curve" smooth="yes"/>
      <point x="84" y="1667"/>
      <point x="144" y="1705"/>
      <point x="144" y="1781" type="curve" smooth="yes"/>
      <point x="144" y="1859"/>
      <point x="84" y="1901"/>
      <point x="26" y="1901" type="curve" smooth="yes"/>
      <point x="-32" y="1901"/>
      <point x="-90" y="1859"/>
      <point x="-90" y="1781" type="curve" smooth="yes"/>
      <point x="-90" y="1706"/>
      <point x="-32" y="1667"/>
    </contour>
    <contour>
      <point x="119" y="0" type="line"/>
      <point x="311" y="0" type="line"/>
      <point x="311" y="1516" type="line"/>
      <point x="119" y="1516" type="line"/>
    </contour>
    <contour>
      <point x="403" y="1667" type="curve" smooth="yes"/>
      <point x="461" y="1667"/>
      <point x="519" y="1705"/>
      <point x="519" y="1781" type="curve" smooth="yes"/>
      <point x="519" y="1859"/>
      <point x="461" y="1901"/>
      <point x="403" y="1901" type="curve" smooth="yes"/>
      <point x="345" y="1901"/>
      <point x="285" y="1859"/>
      <point x="285" y="1781" type="curve" smooth="yes"/>
      <point x="285" y="1706"/>
      <point x="345" y="1667"/>
    </contour>
  </outline>
</glyph>
<glyph name="Ocircumflex" format="1">
  <advance width="1757"/>
  <unicode hex="00D4"/>
  <outline>
    <contour>
      <point x="577" y="1667" type="curve"/>
      <point x="578" y="1667"/>
      <point x="578" y="1667"/>
      <point x="579" y="1669" type="curve"/>
      <point x="876" y="1874" type="line"/>
      <point x="1171" y="1669" type="line" smooth="yes"/>
      <point x="1173" y="1667"/>
      <point x="1175" y="1667"/>
      <point x="1177" y="1667" type="curve" smooth="yes"/>
      <point x="1178" y="1667"/>
      <point x="1179" y="1669"/>
      <point x="1179" y="1671" type="curve" smooth="yes"/>
      <point x="1179" y="1673" type="line"/>
      <point x="915" y="2080" type="line"/>
      <point x="907" y="2088"/>
      <point x="890" y="2096"/>
      <point x="876" y="2096" type="curve" smooth="yes"/>
      <point x="862" y="2096"/>
      <point x="846" y="2088"/>
      <point x="839" y="2080" type="curve"/>
      <point x="574" y="1673" type="line"/>
      <point x="573" y="1673"/>
      <point x="573" y="1672"/>
      <point x="573" y="1671" type="curve" smooth="yes"/>
      <point x="573" y="1669"/>
      <point x="575" y="1667"/>
    </contour>
    <contour>
      <point x="877" y="161" type="curve" smooth="yes"/>
      <point x="562" y="161"/>
      <point x="305" y="430"/>
      <point x="305" y="759" type="curve" smooth="yes"/>
      <point x="305" y="1088"/>
      <point x="562" y="1356"/>
      <point x="877" y="1356" type="curve" smooth="yes"/>
      <point x="1192" y="1356"/>
      <point x="1451" y="1088"/>
      <point x="1451" y="759" type="curve" smooth="yes"/>
      <point x="1451" y="430"/>
      <point x="1192" y="161"/>
    </contour>
    <contour>
      <point x="877" y="-19" type="curve" smooth="yes"/>
      <point x="1301" y="-19"/>
      <point x="1650" y="330"/>
      <point x="1650" y="759" type="curve" smooth="yes"/>
      <point x="1650" y="1187"/>
      <point x="1301" y="1536"/>
      <point x="877" y="1536" type="curve" smooth="yes"/>
      <point x="452" y="1536"/>
      <point x="105" y="1187"/>
      <point x="105" y="759" type="curve" smooth="yes"/>
      <point x="105" y="330"/>
      <point x="452" y="-19"/>
    </contour>
  </outline>
</glyph>
<glyph name="multiply" format="1">
  <advance width="1069"/>
  <unicode hex="00D7"/>
  <outline>
    <contour>
      <point x="776" y="420" type="line"/>
      <point x="888" y="531" type="line"/>
      <point x="646" y="782" type="line"/>
      <point x="892" y="1029" type="line"/>
      <point x="780" y="1140" type="line"/>
      <point x="533" y="893" type="line"/>
      <point x="286" y="1139" type="line"/>
      <point x="174" y="1027" type="line"/>
      <point x="420" y="780" type="line"/>
      <point x="173" y="533" type="line"/>
      <point x="285" y="421" type="line"/>
      <point x="531" y="667" type="line"/>
    </contour>
  </outline>
</glyph>
<glyph name="Oslash" format="1">
  <advance width="1751"/>
  <unicode hex="00D8"/>
  <outline>
    <contour>
      <point x="390" y="-175" type="line"/>
      <point x="534" y="62" type="line"/>
      <point x="638" y="10"/>
      <point x="755" y="-19"/>
      <point x="878" y="-19" type="curve" smooth="yes"/>
      <point x="1302" y="-19"/>
      <point x="1651" y="329"/>
      <point x="1651" y="759" type="curve" smooth="yes"/>
      <point x="1651" y="1014"/>
      <point x="1526" y="1242"/>
      <point x="1335" y="1384" type="curve"/>
      <point x="1471" y="1609" type="line"/>
      <point x="1376" y="1672" type="line"/>
      <point x="1238" y="1445" type="line"/>
      <point x="1130" y="1503"/>
      <point x="1007" y="1536"/>
      <point x="877" y="1536" type="curve" smooth="yes"/>
      <point x="452" y="1536"/>
      <point x="105" y="1186"/>
      <point x="105" y="759" type="curve" smooth="yes"/>
      <point x="105" y="495"/>
      <point x="235" y="262"/>
      <point x="434" y="121" type="curve"/>
      <point x="292" y="-113" type="line"/>
    </contour>
    <contour>
      <point x="532" y="281" type="line"/>
      <point x="394" y="391"/>
      <point x="305" y="564"/>
      <point x="305" y="758" type="curve" smooth="yes"/>
      <point x="305" y="1087"/>
      <point x="562" y="1354"/>
      <point x="877" y="1354" type="curve" smooth="yes"/>
      <point x="972" y="1354"/>
      <point x="1062" y="1329"/>
      <point x="1142" y="1286" type="curve"/>
    </contour>
    <contour>
      <point x="877" y="159" type="curve" smooth="yes"/>
      <point x="788" y="159"/>
      <point x="704" y="180"/>
      <point x="629" y="218" type="curve"/>
      <point x="1237" y="1221" type="line"/>
      <point x="1367" y="1112"/>
      <point x="1451" y="945"/>
      <point x="1451" y="758" type="curve" smooth="yes"/>
      <point x="1451" y="429"/>
      <point x="1192" y="159"/>
    </contour>
  </outline>
</glyph>
<glyph name="eacute" format="1">
  <advance width="1051"/>
  <unicode hex="00E9"/>
  <outline>
    <contour>
      <point x="615" y="-19" type="curve" smooth="yes"/>
      <point x="733" y="-19"/>
      <point x="837" y="12"/>
      <point x="928" y="72" type="curve"/>
      <point x="928" y="229" type="line"/>
      <point x="829" y="163"/>
      <point x="723" y="130"/>
      <point x="614" y="130" type="curve" smooth="yes"/>
      <point x="401" y="130"/>
      <point x="274" y="283"/>
      <point x="272" y="498" type="curve"/>
      <point x="946" y="498" type="line"/>
      <point x="946" y="525" type="line" smooth="yes"/>
      <point x="946" y="812"/>
      <point x="812" y="1016"/>
      <point x="532" y="1016" type="curve" smooth="yes"/>
      <point x="269" y="1016"/>
      <point x="80" y="788"/>
      <point x="80" y="515" type="curve" smooth="yes"/>
      <point x="80" y="198"/>
      <point x="292" y="-19"/>
    </contour>
    <contour>
      <point x="278" y="618" type="line"/>
      <point x="302" y="757"/>
      <point x="390" y="867"/>
      <point x="538" y="867" type="curve" smooth="yes"/>
      <point x="678" y="867"/>
      <point x="782" y="762"/>
      <point x="783" y="618" type="curve"/>
    </contour>
    <contour>
      <point x="479" y="1145" type="curve" smooth="yes"/>
      <point x="483" y="1145"/>
      <point x="494" y="1152"/>
      <point x="503" y="1166" type="curve"/>
      <point x="724" y="1457" type="line" smooth="yes"/>
      <point x="747" y="1488"/>
      <point x="758" y="1518"/>
      <point x="758" y="1542" type="curve" smooth="yes"/>
      <point x="758" y="1595"/>
      <point x="713" y="1629"/>
      <point x="667" y="1629" type="curve" smooth="yes"/>
      <point x="627" y="1629"/>
      <point x="587" y="1605"/>
      <point x="569" y="1542" type="curve"/>
      <point x="472" y="1180" type="line" smooth="yes"/>
      <point x="470" y="1173"/>
      <point x="469" y="1164"/>
      <point x="469" y="1160" type="curve" smooth="yes"/>
      <point x="469" y="1152"/>
      <point x="472" y="1145"/>
    </contour>
  </outline>
</glyph>
<glyph name="oslash" format="1">
  <advance width="1199"/>
  <unicode hex="00F8"/>
  <outline>
    <contour>
      <point x="318" y="-156" type="line"/>
      <point x="406" y="15" type="line"/>
      <point x="466" y="-7"/>
      <point x="531" y="-19"/>
      <point x="599" y="-19" type="curve" smooth="yes"/>
      <point x="882" y="-19"/>
      <point x="1119" y="187"/>
      <point x="1119" y="501" type="curve" smooth="yes"/>
      <point x="1119" y="697"/>
      <point x="1024" y="852"/>
      <point x="882" y="939" type="curve"/>
      <point x="992" y="1152" type="line"/>
      <point x="906" y="1192" type="line"/>
      <point x="797" y="981" type="line"/>
      <point x="736" y="1005"/>
      <point x="669" y="1018"/>
      <point x="599" y="1018" type="curve" smooth="yes"/>
      <point x="316" y="1018"/>
      <point x="81" y="811"/>
      <point x="81" y="502" type="curve" smooth="yes"/>
      <point x="81" y="302"/>
      <point x="176" y="146"/>
      <point x="318" y="59" type="curve"/>
      <point x="228" y="-115" type="line"/>
    </contour>
    <contour>
      <point x="393" y="203" type="line"/>
      <point x="309" y="270"/>
      <point x="259" y="378"/>
      <point x="259" y="498" type="curve" smooth="yes"/>
      <point x="259" y="702"/>
      <point x="396" y="863"/>
      <point x="598" y="863" type="curve" smooth="yes"/>
      <point x="643" y="863"/>
      <point x="685" y="855"/>
      <point x="723" y="840" type="curve"/>
    </contour>
    <contour>
      <point x="598" y="133" type="curve" smooth="yes"/>
      <point x="554" y="133"/>
      <point x="513" y="141"/>
      <point x="476" y="155" type="curve"/>
      <point x="805" y="793" type="line"/>
      <point x="889" y="727"/>
      <point x="939" y="620"/>
      <point x="939" y="498" type="curve" smooth="yes"/>
      <point x="939" y="299"/>
      <point x="800" y="133"/>
    </contour>
  </outline>
</glyph>
<glyph name="ucircumflex" format="1">
  <advance width="1003"/>
  <unicode hex="00FB"/>
  <outline>
    <contour>
      <point x="418" y="-19" type="curve" smooth="yes"/>
      <point x="524" y="-19"/>
      <point x="633" y="31"/>
      <point x="720" y="130" type="curve"/>
      <point x="720" y="0" type="line"/>
      <point x="895" y="0" type="line"/>
      <point x="895" y="996" type="line"/>
      <point x="718" y="996" type="line"/>
      <point x="718" y="271" type="line"/>
      <point x="662" y="186"/>
      <point x="551" y="126"/>
      <point x="452" y="126" type="curve" smooth="yes"/>
      <point x="358" y="126"/>
      <point x="279" y="183"/>
      <point x="279" y="325" type="curve" smooth="yes"/>
      <point x="279" y="996" type="line"/>
      <point x="100" y="996" type="line"/>
      <point x="100" y="335" type="line" smooth="yes"/>
      <point x="100" y="100"/>
      <point x="252" y="-19"/>
    </contour>
    <contour>
      <point x="199" y="1149" type="curve"/>
      <point x="200" y="1149"/>
      <point x="200" y="1149"/>
      <point x="201" y="1150" type="curve" smooth="yes"/>
      <point x="498" y="1355" type="line"/>
      <point x="793" y="1150" type="line" smooth="yes"/>
      <point x="795" y="1149"/>
      <point x="798" y="1149"/>
      <point x="799" y="1149" type="curve" smooth="yes"/>
      <point x="800" y="1149"/>
      <point x="801" y="1150"/>
      <point x="801" y="1151" type="curve"/>
      <point x="801" y="1153" type="line"/>
      <point x="537" y="1560" type="line"/>
      <point x="529" y="1570"/>
      <point x="512" y="1575"/>
      <point x="498" y="1575" type="curve" smooth="yes"/>
      <point x="484" y="1575"/>
      <point x="468" y="1570"/>
      <point x="461" y="1560" type="curve" smooth="yes"/>
      <point x="196" y="1153" type="line"/>
      <point x="195" y="1153"/>
      <point x="195" y="1152"/>
      <point x="195" y="1151" type="curve" smooth="yes"/>
      <point x="195" y="1150"/>
      <point x="197" y="1149"/>
    </contour>
  </outline>
</glyph>
<glyph name="Aogonek" format="1">
  <advance width="1527"/>
  <unicode hex="0104"/>
  <outline>
    <contour>
      <point x="1305" y="-378" type="line"/>
      <point x="1318" y="-378"/>
      <point x="1333" y="-377"/>
      <point x="1347" y="-374" type="curve"/>
      <point x="1378" y="-249" type="line"/>
      <point x="1376" y="-249" type="line" smooth="yes"/>
      <point x="1252" y="-249"/>
      <point x="1189" y="-187"/>
      <point x="1189" y="-123" type="curve" smooth="yes"/>
      <point x="1189" y="-76"/>
      <point x="1226" y="-26"/>
      <point x="1300" y="1" type="curve"/>
      <point x="1463" y="1" type="line"/>
      <point x="1466" y="4" type="line"/>
      <point x="817" y="1517" type="line"/>
      <point x="674" y="1517" type="line"/>
      <point x="60" y="1" type="line"/>
      <point x="258" y="1" type="line"/>
      <point x="460" y="488" type="line"/>
      <point x="1064" y="488" type="line"/>
      <point x="1256" y="49" type="line"/>
      <point x="1131" y="40"/>
      <point x="1069" y="-57"/>
      <point x="1069" y="-158" type="curve" smooth="yes"/>
      <point x="1069" y="-269"/>
      <point x="1163" y="-377"/>
      <point x="1305" y="-377" type="curve"/>
    </contour>
    <contour>
      <point x="533" y="663" type="line"/>
      <point x="751" y="1267" type="line"/>
      <point x="988" y="663" type="line"/>
    </contour>
  </outline>
</glyph>
<glyph name="Ccircumflex" format="1">
  <advance width="1511"/>
  <unicode hex="0108"/>
  <outline>
    <contour>
      <point x="445" y="1667" type="curve"/>
      <point x="446" y="1667"/>
      <point x="446" y="1667"/>
      <point x="447" y="1669" type="curve"/>
      <point x="744" y="1874" type="line"/>
      <point x="1039" y="1669" type="line"/>
      <point x="1040" y="1667"/>
      <point x="1041" y="1667"/>
      <point x="1042" y="1667" type="curve" smooth="yes"/>
      <point x="1044" y="1667"/>
      <point x="1047" y="1669"/>
      <point x="1047" y="1671" type="curve" smooth="yes"/>
      <point x="1047" y="1673" type="line"/>
      <point x="781" y="2080" type="line" smooth="yes"/>
      <point x="775" y="2088"/>
      <point x="758" y="2096"/>
      <point x="744" y="2096" type="curve" smooth="yes"/>
      <point x="729" y="2096"/>
      <point x="713" y="2088"/>
      <point x="707" y="2080" type="curve" smooth="yes"/>
      <point x="442" y="1673" type="line"/>
      <point x="441" y="1673"/>
      <point x="441" y="1672"/>
      <point x="441" y="1671" type="curve" smooth="yes"/>
      <point x="441" y="1669"/>
      <point x="443" y="1667"/>
    </contour>
    <contour>
      <point x="905" y="-19" type="curve" smooth="yes"/>
      <point x="1060" y="-19"/>
      <point x="1214" y="20"/>
      <point x="1391" y="115" type="curve"/>
      <point x="1391" y="325" type="line"/>
      <point x="1254" y="218"/>
      <point x="1077" y="160"/>
      <point x="916" y="160" type="curve" smooth="yes"/>
      <point x="608" y="160"/>
      <point x="325" y="354"/>
      <point x="325" y="754" type="curve" smooth="yes"/>
      <point x="325" y="1126"/>
      <point x="604" y="1350"/>
      <point x="922" y="1350" type="curve" smooth="yes"/>
      <point x="1064" y="1350"/>
      <point x="1225" y="1303"/>
      <point x="1391" y="1215" type="curve"/>
      <point x="1391" y="1433" type="line"/>
      <point x="1238" y="1498"/>
      <point x="1067" y="1536"/>
      <point x="920" y="1536" type="curve" smooth="yes"/>
      <point x="481" y="1536"/>
      <point x="106" y="1239"/>
      <point x="106" y="759" type="curve" smooth="yes"/>
      <point x="106" y="328"/>
      <point x="431" y="-19"/>
    </contour>
  </outline>
</glyph>
<glyph name="Dcaron" format="1">
  <advance width="1557"/>
  <unicode hex="010E"/>
  <outline>
    <contour>
      <point x="788" y="1669" type="curve" smooth="yes"/>
      <point x="802" y="1669"/>
      <point x="818" y="1675"/>
      <point x="825" y="1684" type="curve"/>
      <point x="1091" y="2091" type="line"/>
      <point x="1092" y="2091"/>
      <point x="1092" y="2093"/>
      <point x="1092" y="2094" type="curve" smooth="yes"/>
      <point x="1092" y="2095"/>
      <point x="1091" y="2096"/>
      <point x="1089" y="2096" type="curve" smooth="yes"/>
      <point x="1086" y="2096"/>
      <point x="1086" y="2096"/>
      <point x="1085" y="2095" type="curve" smooth="yes"/>
      <point x="788" y="1889" type="line"/>
      <point x="492" y="2095" type="line" smooth="yes"/>
      <point x="491" y="2096"/>
      <point x="489" y="2096"/>
      <point x="488" y="2096" type="curve" smooth="yes"/>
      <point x="487" y="2096"/>
      <point x="486" y="2095"/>
      <point x="486" y="2094" type="curve"/>
      <point x="486" y="2091" type="line"/>
      <point x="751" y="1684" type="line"/>
      <point x="758" y="1675"/>
      <point x="774" y="1669"/>
    </contour>
    <contour>
      <point x="319" y="177" type="line"/>
      <point x="319" y="1337" type="line"/>
      <point x="713" y="1337" type="line" smooth="yes"/>
      <point x="1007" y="1337"/>
      <point x="1242" y="1199"/>
      <point x="1242" y="761" type="curve" smooth="yes"/>
      <point x="1242" y="374"/>
      <point x="1007" y="177"/>
      <point x="664" y="177" type="curve" smooth="yes"/>
    </contour>
    <contour>
      <point x="128" y="0" type="line"/>
      <point x="706" y="0" type="line" smooth="yes"/>
      <point x="1183" y="0"/>
      <point x="1452" y="356"/>
      <point x="1452" y="764" type="curve" smooth="yes"/>
      <point x="1452" y="1207"/>
      <point x="1204" y="1516"/>
      <point x="739" y="1516" type="curve" smooth="yes"/>
      <point x="128" y="1516" type="line"/>
    </contour>
  </outline>
</glyph>
<glyph name="Edotaccent" format="1">
  <advance width="1060"/>
  <unicode hex="0116"/>
  <outline>
    <contour>
      <point x="128" y="0" type="line"/>
      <point x="973" y="0" type="line"/>
      <point x="973" y="176" type="line"/>
      <point x="319" y="176" type="line"/>
      <point x="319" y="682" type="line"/>
      <point x="946" y="682" type="line"/>
      <point x="946" y="856" type="line"/>
      <point x="319" y="856" type="line"/>
      <point x="319" y="1339" type="line"/>
      <point x="960" y="1339" type="line"/>
      <point x="960" y="1515" type="line"/>
      <point x="128" y="1515" type="line"/>
    </contour>
    <contour>
      <point x="545" y="1668" type="curve" smooth="yes"/>
      <point x="608" y="1668"/>
      <point x="673" y="1710"/>
      <point x="673" y="1796" type="curve" smooth="yes"/>
      <point x="673" y="1884"/>
      <point x="608" y="1929"/>
      <point x="545" y="1929" type="curve" smooth="yes"/>
      <point x="479" y="1929"/>
      <point x="415" y="1885"/>
      <point x="415" y="1796" type="curve" smooth="yes"/>
      <point x="415" y="1710"/>
      <point x="479" y="1668"/>
    </contour>
  </outline>
</glyph>
<glyph name="edotaccent" format="1">
  <advance width="1051"/>
  <unicode hex="0117"/>
  <outline>
    <contour>
      <point x="615" y="-20" type="curve" smooth="yes"/>
      <point x="733" y="-20"/>
      <point x="837" y="12"/>
      <point x="928" y="72" type="curve"/>
      <point x="928" y="229" type="line"/>
      <point x="829" y="162"/>
      <point x="723" y="129"/>
      <point x="614" y="129" type="curve" smooth="yes"/>
      <point x="401" y="129"/>
      <point x="274" y="282"/>
      <point x="272" y="497" type="curve"/>
      <point x="946" y="497" type="line"/>
      <point x="946" y="524" type="line" smooth="yes"/>
      <point x="946" y="811"/>
      <point x="812" y="1014"/>
      <point x="532" y="1014" type="curve" smooth="yes"/>
      <point x="269" y="1014"/>
      <point x="80" y="787"/>
      <point x="80" y="515" type="curve" smooth="yes"/>
      <point x="80" y="197"/>
      <point x="292" y="-20"/>
    </contour>
    <contour>
      <point x="514" y="1148" type="curve" smooth="yes"/>
      <point x="577" y="1148"/>
      <point x="642" y="1189"/>
      <point x="642" y="1275" type="curve" smooth="yes"/>
      <point x="642" y="1363"/>
      <point x="577" y="1409"/>
      <point x="514" y="1409" type="curve" smooth="yes"/>
      <point x="448" y="1409"/>
      <point x="384" y="1365"/>
      <point x="384" y="1275" type="curve" smooth="yes"/>
      <point x="384" y="1189"/>
      <point x="448" y="1148"/>
    </contour>
    <contour>
      <point x="278" y="618" type="line"/>
      <point x="302" y="756"/>
      <point x="390" y="866"/>
      <point x="538" y="866" type="curve" smooth="yes"/>
      <point x="678" y="866"/>
      <point x="782" y="762"/>
      <point x="783" y="618" type="curve"/>
    </contour>
  </outline>
</glyph>
<glyph name="eogonek" format="1">
  <advance width="1051"/>
  <unicode hex="0119"/>
  <outline>
    <contour>
      <point x="542" y="-432" type="curve" smooth="yes"/>
      <point x="554" y="-432"/>
      <point x="570" y="-431"/>
      <point x="583" y="-427" type="curve"/>
      <point x="614" y="-302" type="line"/>
      <point x="612" y="-302" type="line" smooth="yes"/>
      <point x="490" y="-302"/>
      <point x="426" y="-241"/>
      <point x="426" y="-179" type="curve" smooth="yes"/>
      <point x="426" y="-129"/>
      <point x="466" y="-79"/>
      <point x="543" y="-52" type="curve"/>
      <point x="519" y="-14" type="line"/>
      <point x="550" y="-19"/>
      <point x="582" y="-21"/>
      <point x="615" y="-21" type="curve" smooth="yes"/>
      <point x="733" y="-21"/>
      <point x="837" y="12"/>
      <point x="928" y="71" type="curve"/>
      <point x="928" y="228" type="line"/>
      <point x="829" y="161"/>
      <point x="723" y="130"/>
      <point x="614" y="130" type="curve" smooth="yes"/>
      <point x="401" y="130"/>
      <point x="274" y="281"/>
      <point x="272" y="497" type="curve"/>
      <point x="946" y="497" type="line"/>
      <point x="946" y="524" type="line" smooth="yes"/>
      <point x="946" y="810"/>
      <point x="812" y="1015"/>
      <point x="532" y="1015" type="curve" smooth="yes"/>
      <point x="269" y="1015"/>
      <point x="80" y="786"/>
      <point x="80" y="515" type="curve" smooth="yes"/>
      <point x="80" y="242"/>
      <point x="237" y="43"/>
      <point x="486" y="-8" type="curve"/>
      <point x="366" y="-21"/>
      <point x="306" y="-115"/>
      <point x="306" y="-213" type="curve" smooth="yes"/>
      <point x="306" y="-325"/>
      <point x="400" y="-432"/>
    </contour>
    <contour>
      <point x="278" y="618" type="line"/>
      <point x="302" y="755"/>
      <point x="390" y="866"/>
      <point x="538" y="866" type="curve" smooth="yes"/>
      <point x="678" y="866"/>
      <point x="782" y="762"/>
      <point x="783" y="618" type="curve"/>
    </contour>
  </outline>
</glyph>
<glyph name="ecaron" format="1">
  <advance width="1051"/>
  <unicode hex="011B"/>
  <outline>
    <contour>
      <point x="510" y="1149" type="curve" smooth="yes"/>
      <point x="524" y="1149"/>
      <point x="543" y="1154"/>
      <point x="548" y="1164" type="curve"/>
      <point x="814" y="1571" type="line"/>
      <point x="815" y="1571"/>
      <point x="815" y="1572"/>
      <point x="815" y="1573" type="curve" smooth="yes"/>
      <point x="815" y="1574"/>
      <point x="814" y="1576"/>
      <point x="811" y="1576" type="curve" smooth="yes"/>
      <point x="810" y="1576"/>
      <point x="810" y="1576"/>
      <point x="809" y="1574" type="curve"/>
      <point x="510" y="1368" type="line"/>
      <point x="217" y="1574" type="line"/>
      <point x="216" y="1576"/>
      <point x="214" y="1576"/>
      <point x="213" y="1576" type="curve" smooth="yes"/>
      <point x="212" y="1576"/>
      <point x="209" y="1574"/>
      <point x="209" y="1573" type="curve"/>
      <point x="209" y="1571" type="line"/>
      <point x="475" y="1164" type="line" smooth="yes"/>
      <point x="481" y="1154"/>
      <point x="496" y="1149"/>
    </contour>
    <contour>
      <point x="615" y="-20" type="curve" smooth="yes"/>
      <point x="733" y="-20"/>
      <point x="837" y="12"/>
      <point x="928" y="71" type="curve"/>
      <point x="928" y="228" type="line"/>
      <point x="829" y="161"/>
      <point x="723" y="130"/>
      <point x="614" y="130" type="curve" smooth="yes"/>
      <point x="401" y="130"/>
      <point x="274" y="282"/>
      <point x="272" y="498" type="curve"/>
      <point x="946" y="498" type="line"/>
      <point x="946" y="523" type="line" smooth="yes"/>
      <point x="946" y="810"/>
      <point x="812" y="1016"/>
      <point x="532" y="1016" type="curve" smooth="yes"/>
      <point x="269" y="1016"/>
      <point x="80" y="787"/>
      <point x="80" y="516" type="curve" smooth="yes"/>
      <point x="80" y="198"/>
      <point x="292" y="-20"/>
    </contour>
    <contour>
      <point x="278" y="618" type="line"/>
      <point x="302" y="757"/>
      <point x="390" y="866"/>
      <point x="538" y="866" type="curve" smooth="yes"/>
      <point x="678" y="866"/>
      <point x="782" y="761"/>
      <point x="783" y="618" type="curve"/>
    </contour>
  </outline>
</glyph>
<glyph name="hcircumflex" format="1">
  <advance width="1031"/>
  <unicode hex="0125"/>
  <outline>
    <contour>
      <point x="106" y="0" type="line"/>
      <point x="285" y="0" type="line"/>
      <point x="285" y="729" type="line"/>
      <point x="342" y="803"/>
      <point x="506" y="861"/>
      <point x="576" y="861" type="curve" smooth="yes"/>
      <point x="702" y="861"/>
      <point x="752" y="788"/>
      <point x="752" y="600" type="curve" smooth="yes"/>
      <point x="752" y="0" type="line"/>
      <point x="931" y="0" type="line"/>
      <point x="931" y="660" type="line" smooth="yes"/>
      <point x="931" y="907"/>
      <point x="773" y="1017"/>
      <point x="599" y="1017" type="curve" smooth="yes"/>
      <point x="489" y="1017"/>
      <point x="372" y="970"/>
      <point x="285" y="888" type="curve"/>
      <point x="285" y="1490" type="line"/>
      <point x="106" y="1490" type="line"/>
    </contour>
    <contour>
      <point x="223" y="1623" type="curve" smooth="yes"/>
      <point x="225" y="1623"/>
      <point x="225" y="1623"/>
      <point x="226" y="1624" type="curve" smooth="yes"/>
      <point x="520" y="1830" type="line"/>
      <point x="818" y="1624" type="line" smooth="yes"/>
      <point x="819" y="1623"/>
      <point x="820" y="1623"/>
      <point x="821" y="1623" type="curve" smooth="yes"/>
      <point x="822" y="1623"/>
      <point x="823" y="1624"/>
      <point x="823" y="1625" type="curve"/>
      <point x="823" y="1627" type="line"/>
      <point x="559" y="2034" type="line" smooth="yes"/>
      <point x="553" y="2043"/>
      <point x="534" y="2049"/>
      <point x="520" y="2049" type="curve" smooth="yes"/>
      <point x="506" y="2049"/>
      <point x="491" y="2043"/>
      <point x="484" y="2034" type="curve"/>
      <point x="218" y="1627" type="line"/>
      <point x="217" y="1627"/>
      <point x="217" y="1626"/>
      <point x="217" y="1625" type="curve" smooth="yes"/>
      <point x="217" y="1624"/>
      <point x="219" y="1623"/>
    </contour>
  </outline>
</glyph>
<glyph name="Ibreve" format="1">
  <advance width="429"/>
  <unicode hex="012C"/>
  <outline>
    <contour>
      <point x="215" y="1668" type="curve" smooth="yes"/>
      <point x="327" y="1668"/>
      <point x="440" y="1747"/>
      <point x="446" y="1907" type="curve"/>
      <point x="341" y="1907" type="line"/>
      <point x="332" y="1825"/>
      <point x="272" y="1783"/>
      <point x="214" y="1783" type="curve" smooth="yes"/>
      <point x="156" y="1783"/>
      <point x="97" y="1825"/>
      <point x="88" y="1907" type="curve"/>
      <point x="-17" y="1907" type="line"/>
      <point x="-11" y="1747"/>
      <point x="102" y="1668"/>
    </contour>
    <contour>
      <point x="119" y="0" type="line"/>
      <point x="311" y="0" type="line"/>
      <point x="311" y="1515" type="line"/>
      <point x="119" y="1515" type="line"/>
    </contour>
  </outline>
</glyph>
<glyph name="ibreve" format="1">
  <advance width="456"/>
  <unicode hex="012D"/>
  <outline>
    <contour>
      <point x="251" y="1148" type="curve" smooth="yes"/>
      <point x="363" y="1148"/>
      <point x="476" y="1228"/>
      <point x="482" y="1387" type="curve"/>
      <point x="377" y="1387" type="line"/>
      <point x="368" y="1305"/>
      <point x="308" y="1264"/>
      <point x="250" y="1264" type="curve" smooth="yes"/>
      <point x="192" y="1264"/>
      <point x="133" y="1305"/>
      <point x="124" y="1387" type="curve"/>
      <point x="19" y="1387" type="line"/>
      <point x="25" y="1228"/>
      <point x="138" y="1148"/>
    </contour>
    <contour>
      <point x="161" y="0" type="line"/>
      <point x="342" y="0" type="line"/>
      <point x="342" y="998" type="line"/>
      <point x="161" y="998" type="line"/>
    </contour>
  </outline>
</glyph>
<glyph name="Jcircumflex" format="1">
  <advance width="607"/>
  <unicode hex="0134"/>
  <outline>
    <contour>
      <point x="-64" y="1669" type="curve"/>
      <point x="-63" y="1669"/>
      <point x="-63" y="1669"/>
      <point x="-60" y="1670" type="curve"/>
      <point x="235" y="1875" type="line"/>
      <point x="531" y="1670" type="line"/>
      <point x="534" y="1669"/>
      <point x="535" y="1669"/>
      <point x="536" y="1669" type="curve" smooth="yes"/>
      <point x="537" y="1669"/>
      <point x="538" y="1670"/>
      <point x="538" y="1671" type="curve"/>
      <point x="538" y="1673" type="line"/>
      <point x="274" y="2081" type="line"/>
      <point x="267" y="2090"/>
      <point x="249" y="2096"/>
      <point x="235" y="2096" type="curve" smooth="yes"/>
      <point x="221" y="2096"/>
      <point x="206" y="2090"/>
      <point x="198" y="2081" type="curve"/>
      <point x="-67" y="1673" type="line"/>
      <point x="-68" y="1673"/>
      <point x="-68" y="1672"/>
      <point x="-68" y="1671" type="curve" smooth="yes"/>
      <point x="-68" y="1670"/>
      <point x="-66" y="1669"/>
    </contour>
    <contour>
      <point x="7" y="-392" type="line"/>
      <point x="327" y="-391"/>
      <point x="463" y="-289"/>
      <point x="463" y="-42" type="curve" smooth="yes"/>
      <point x="463" y="1515" type="line"/>
      <point x="272" y="1515" type="line"/>
      <point x="272" y="24" type="line" smooth="yes"/>
      <point x="272" y="-175"/>
      <point x="239" y="-239"/>
      <point x="7" y="-239" type="curve"/>
    </contour>
  </outline>
</glyph>
<glyph name="Obreve" format="1">
  <advance width="1757"/>
  <unicode hex="014E"/>
  <outline>
    <contour>
      <point x="876" y="1669" type="curve" smooth="yes"/>
      <point x="987" y="1669"/>
      <point x="1099" y="1748"/>
      <point x="1106" y="1907" type="curve"/>
      <point x="1001" y="1907" type="line"/>
      <point x="992" y="1826"/>
      <point x="933" y="1783"/>
      <point x="875" y="1783" type="curve" smooth="yes"/>
      <point x="816" y="1783"/>
      <point x="758" y="1826"/>
      <point x="748" y="1907" type="curve"/>
      <point x="644" y="1907" type="line"/>
      <point x="650" y="1748"/>
      <point x="763" y="1669"/>
    </contour>
    <contour>
      <point x="877" y="162" type="curve" smooth="yes"/>
      <point x="562" y="162"/>
      <point x="305" y="430"/>
      <point x="305" y="760" type="curve" smooth="yes"/>
      <point x="305" y="1089"/>
      <point x="562" y="1356"/>
      <point x="877" y="1356" type="curve" smooth="yes"/>
      <point x="1192" y="1356"/>
      <point x="1451" y="1089"/>
      <point x="1451" y="760" type="curve" smooth="yes"/>
      <point x="1451" y="430"/>
      <point x="1192" y="162"/>
    </contour>
    <contour>
      <point x="877" y="-19" type="curve" smooth="yes"/>
      <point x="1301" y="-19"/>
      <point x="1650" y="330"/>
      <point x="1650" y="760" type="curve" smooth="yes"/>
      <point x="1650" y="1188"/>
      <point x="1301" y="1537"/>
      <point x="877" y="1537" type="curve" smooth="yes"/>
      <point x="452" y="1537"/>
      <point x="105" y="1188"/>
      <point x="105" y="760" type="curve" smooth="yes"/>
      <point x="105" y="330"/>
      <point x="452" y="-19"/>
    </contour>
  </outline>
</glyph>
<glyph name="tcommaaccent" format="1">
  <advance width="747"/>
  <unicode hex="0163"/>
  <outline>
    <contour>
      <point x="451" y="-21" type="curve" smooth="yes"/>
      <point x="538" y="-21"/>
      <point x="629" y="5"/>
      <point x="702" y="61" type="curve"/>
      <point x="702" y="219" type="line"/>
      <point x="633" y="172"/>
      <point x="545" y="129"/>
      <point x="475" y="129" type="curve" smooth="yes"/>
      <point x="402" y="129"/>
      <point x="343" y="163"/>
      <point x="343" y="263" type="curve" smooth="yes"/>
      <point x="343" y="859" type="line"/>
      <point x="651" y="859" type="line"/>
      <point x="651" y="996" type="line"/>
      <point x="343" y="996" type="line"/>
      <point x="343" y="1238" type="line"/>
      <point x="323" y="1238" type="line"/>
      <point x="17" y="895" type="line"/>
      <point x="12" y="888"/>
      <point x="8" y="879"/>
      <point x="8" y="873" type="curve" smooth="yes"/>
      <point x="8" y="865"/>
      <point x="20" y="859"/>
      <point x="35" y="859" type="curve" smooth="yes"/>
      <point x="165" y="859" type="line"/>
      <point x="165" y="234" type="line" smooth="yes"/>
      <point x="165" y="72"/>
      <point x="298" y="-21"/>
    </contour>
    <contour>
      <point x="255" y="-626" type="line"/>
      <point x="359" y="-626"/>
      <point x="492" y="-433"/>
      <point x="492" y="-299" type="curve" smooth="yes"/>
      <point x="492" y="-199"/>
      <point x="419" y="-153"/>
      <point x="351" y="-153" type="curve" smooth="yes"/>
      <point x="283" y="-153"/>
      <point x="218" y="-200"/>
      <point x="218" y="-290" type="curve" smooth="yes"/>
      <point x="218" y="-343"/>
      <point x="249" y="-395"/>
      <point x="317" y="-414" type="curve"/>
      <point x="317" y="-494"/>
      <point x="293" y="-544"/>
      <point x="232" y="-601" type="curve"/>
    </contour>
  </outline>
</glyph>
<glyph name="umacron" format="1">
  <advance width="1003"/>
  <unicode hex="016B"/>
  <outline>
    <contour>
      <point x="418" y="-17" type="curve" smooth="yes"/>
      <point x="524" y="-17"/>
      <point x="633" y="32"/>
      <point x="720" y="130" type="curve"/>
      <point x="720" y="0" type="line"/>
      <point x="895" y="0" type="line"/>
      <point x="895" y="998" type="line"/>
      <point x="718" y="998" type="line"/>
      <point x="718" y="273" type="line"/>
      <point x="662" y="188"/>
      <point x="551" y="128"/>
      <point x="452" y="128" type="curve" smooth="yes"/>
      <point x="358" y="128"/>
      <point x="279" y="183"/>
      <point x="279" y="326" type="curve" smooth="yes"/>
      <point x="279" y="998" type="line"/>
      <point x="100" y="998" type="line"/>
      <point x="100" y="336" type="line" smooth="yes"/>
      <point x="100" y="102"/>
      <point x="252" y="-17"/>
    </contour>
    <contour>
      <point x="240" y="1149" type="line"/>
      <point x="754" y="1149" type="line"/>
      <point x="754" y="1301" type="line"/>
      <point x="240" y="1301" type="line"/>
    </contour>
  </outline>
</glyph>
<glyph name="Zdotaccent" format="1">
  <advance width="1392"/>
  <unicode hex="017B"/>
  <outline>
    <contour>
      <point x="98" y="0" type="line"/>
      <point x="1314" y="0" type="line"/>
      <point x="1314" y="169" type="line"/>
      <point x="442" y="169" type="line"/>
      <point x="1311" y="1507" type="line"/>
      <point x="1303" y="1515" type="line"/>
      <point x="146" y="1515" type="line"/>
      <point x="146" y="1352" type="line"/>
      <point x="967" y="1352" type="line"/>
      <point x="96" y="11" type="line"/>
    </contour>
    <contour>
      <point x="705" y="1668" type="curve" smooth="yes"/>
      <point x="769" y="1668"/>
      <point x="835" y="1710"/>
      <point x="835" y="1796" type="curve" smooth="yes"/>
      <point x="835" y="1884"/>
      <point x="769" y="1929"/>
      <point x="705" y="1929" type="curve" smooth="yes"/>
      <point x="640" y="1929"/>
      <point x="575" y="1885"/>
      <point x="575" y="1796" type="curve" smooth="yes"/>
      <point x="575" y="1710"/>
      <point x="640" y="1668"/>
    </contour>
  </outline>
</glyph>
<glyph name="zcaron" format="1">
  <advance width="904"/>
  <unicode hex="017E"/>
  <outline>
    <contour>
      <point x="444" y="1149" type="curve" smooth="yes"/>
      <point x="458" y="1149"/>
      <point x="474" y="1157"/>
      <point x="480" y="1164" type="curve"/>
      <point x="747" y="1572" type="line"/>
      <point x="748" y="1572"/>
      <point x="748" y="1573"/>
      <point x="748" y="1574" type="curve" smooth="yes"/>
      <point x="748" y="1575"/>
      <point x="747" y="1576"/>
      <point x="743" y="1576" type="curve" smooth="yes"/>
      <point x="741" y="1576"/>
      <point x="741" y="1576"/>
      <point x="740" y="1575" type="curve" smooth="yes"/>
      <point x="444" y="1369" type="line"/>
      <point x="148" y="1575" type="line" smooth="yes"/>
      <point x="147" y="1576"/>
      <point x="145" y="1576"/>
      <point x="144" y="1576" type="curve" smooth="yes"/>
      <point x="143" y="1576"/>
      <point x="142" y="1575"/>
      <point x="142" y="1574" type="curve"/>
      <point x="142" y="1572" type="line"/>
      <point x="407" y="1164" type="line"/>
      <point x="413" y="1157"/>
      <point x="430" y="1149"/>
    </contour>
    <contour>
      <point x="75" y="0" type="line"/>
      <point x="816" y="0" type="line"/>
      <point x="816" y="141" type="line"/>
      <point x="329" y="141" type="line"/>
      <point x="830" y="952" type="line"/>
      <point x="812" y="999" type="line"/>
      <point x="104" y="999" type="line"/>
      <point x="104" y="857" type="line"/>
      <point x="567" y="857" type="line"/>
      <point x="65" y="35" type="line"/>
    </contour>
  </outline>
</glyph>
<glyph name="uni01F2" format="1">
  <advance width="2461"/>
  <unicode hex="01F2"/>
  <outline>
    <contour>
      <point x="75" y="0" type="line"/>
      <point x="816" y="0" type="line"/>
      <point x="816" y="140" type="line"/>
      <point x="329" y="140" type="line"/>
      <point x="828" y="952" type="line"/>
      <point x="812" y="998" type="line"/>
      <point x="104" y="998" type="line"/>
      <point x="104" y="856" type="line"/>
      <point x="567" y="856" type="line"/>
      <point x="65" y="34" type="line"/>
    </contour>
    <contour>
      <point x="1223" y="177" type="line"/>
      <point x="1223" y="1337" type="line"/>
      <point x="1615" y="1337" type="line" smooth="yes"/>
      <point x="1911" y="1337"/>
      <point x="2146" y="1198"/>
      <point x="2146" y="760" type="curve" smooth="yes"/>
      <point x="2146" y="373"/>
      <point x="1911" y="177"/>
      <point x="1567" y="177" type="curve" smooth="yes"/>
    </contour>
    <contour>
      <point x="1031" y="0" type="line"/>
      <point x="1609" y="0" type="line" smooth="yes"/>
      <point x="2086" y="0"/>
      <point x="2356" y="357"/>
      <point x="2356" y="763" type="curve" smooth="yes"/>
      <point x="2356" y="1207"/>
      <point x="2107" y="1516"/>
      <point x="1643" y="1516" type="curve" smooth="yes"/>
      <point x="1031" y="1516" type="line"/>
    </contour>
  </outline>
</glyph>
<glyph name="uni0209" format="1">
  <advance width="457"/>
  <unicode hex="0209"/>
  <outline>
    <contour>
      <point x="162" y="0" type="line"/>
      <point x="343" y="0" type="line"/>
      <point x="343" y="998" type="line"/>
      <point x="162" y="998" type="line"/>
    </contour>
  </outline>
</glyph>
<glyph name="uni0211" format="1">
  <advance width="823"/>
  <unicode hex="0211"/>
  <outline>
    <contour>
      <point x="108" y="0" type="line"/>
      <point x="284" y="0" type="line"/>
      <point x="284" y="411" type="line" smooth="yes"/>
      <point x="284" y="737"/>
      <point x="437" y="825"/>
      <point x="517" y="825" type="curve" smooth="yes"/>
      <point x="574" y="825"/>
      <point x="624" y="779"/>
      <point x="655" y="740" type="curve"/>
      <point x="772" y="899" type="line"/>
      <point x="695" y="985"/>
      <point x="611" y="1015"/>
      <point x="561" y="1015" type="curve" smooth="yes"/>
      <point x="417" y="1015"/>
      <point x="321" y="870"/>
      <point x="284" y="749" type="curve"/>
      <point x="284" y="996" type="line"/>
      <point x="108" y="996" type="line"/>
    </contour>
  </outline>
</glyph>
<glyph name="uni0213" format="1">
  <advance width="823"/>
  <unicode hex="0213"/>
  <outline>
    <contour>
      <point x="108" y="0" type="line"/>
      <point x="284" y="0" type="line"/>
      <point x="284" y="412" type="line" smooth="yes"/>
      <point x="284" y="739"/>
      <point x="437" y="827"/>
      <point x="517" y="827" type="curve" smooth="yes"/>
      <point x="574" y="827"/>
      <point x="624" y="781"/>
      <point x="655" y="741" type="curve"/>
      <point x="772" y="901" type="line"/>
      <point x="695" y="988"/>
      <point x="611" y="1017"/>
      <point x="561" y="1017" type="curve" smooth="yes"/>
      <point x="417" y="1017"/>
      <point x="321" y="872"/>
      <point x="284" y="750" type="curve"/>
      <point x="284" y="999" type="line"/>
      <point x="108" y="999" type="line"/>
    </contour>
    <contour>
      <point x="166" y="1149" type="curve"/>
      <point x="310" y="1149" type="line"/>
      <point x="320" y="1231"/>
      <point x="370" y="1273"/>
      <point x="437" y="1273" type="curve" smooth="yes"/>
      <point x="503" y="1273"/>
      <point x="554" y="1231"/>
      <point x="563" y="1149" type="curve"/>
      <point x="707" y="1149" type="line"/>
      <point x="701" y="1308"/>
      <point x="561" y="1401"/>
      <point x="438" y="1401" type="curve" smooth="yes"/>
      <point x="312" y="1401"/>
      <point x="173" y="1308"/>
    </contour>
  </outline>
</glyph>
<glyph name="caron" format="1">
  <advance width="757"/>
  <unicode hex="02C7"/>
  <outline>
    <contour>
      <point x="378" y="142" type="curve" smooth="yes"/>
      <point x="392" y="142"/>
      <point x="408" y="148"/>
      <point x="416" y="157" type="curve"/>
      <point x="681" y="565" type="line"/>
      <point x="682" y="565"/>
      <point x="682" y="566"/>
      <point x="682" y="567" type="curve" smooth="yes"/>
      <point x="682" y="568"/>
      <point x="681" y="569"/>
      <point x="679" y="569" type="curve" smooth="yes"/>
      <point x="678" y="569"/>
      <point x="678" y="569"/>
      <point x="675" y="568" type="curve"/>
      <point x="378" y="362" type="line"/>
      <point x="84" y="568" type="line"/>
      <point x="81" y="569"/>
      <point x="79" y="569"/>
      <point x="78" y="569" type="curve" smooth="yes"/>
      <point x="77" y="569"/>
      <point x="76" y="568"/>
      <point x="76" y="567" type="curve"/>
      <point x="76" y="565" type="line"/>
      <point x="341" y="157" type="line"/>
      <point x="348" y="148"/>
      <point x="364" y="142"/>
    </contour>
  </outline>
</glyph>
<glyph name="ogonek" format="1">
  <advance width="444"/>
  <unicode hex="02DB"/>
  <outline>
    <contour>
      <point x="309" y="-381" type="curve" smooth="yes"/>
      <point x="322" y="-381"/>
      <point x="337" y="-380"/>
      <point x="351" y="-377" type="curve"/>
      <point x="351" y="-377"/>
      <point x="381" y="-251"/>
      <point x="381" y="-251" type="curve"/>
      <point x="256" y="-251"/>
      <point x="193" y="-191"/>
      <point x="193" y="-127" type="curve" smooth="yes"/>
      <point x="193" y="-78"/>
      <point x="232" y="-26"/>
      <point x="310" y="0" type="curve"/>
      <point x="280" y="46" type="line"/>
      <point x="143" y="46"/>
      <point x="73" y="-57"/>
      <point x="73" y="-163" type="curve" smooth="yes"/>
      <point x="73" y="-273"/>
      <point x="167" y="-381"/>
    </contour>
  </outline>
</glyph>
<glyph name="tilde" format="1">
  <advance width="624"/>
  <unicode hex="02DC"/>
  <outline>
    <contour>
      <point x="312" y="218" type="move" name="_top"/>
    </contour>
    <contour>
      <point x="429" y="228" type="curve" smooth="yes"/>
      <point x="529" y="228"/>
      <point x="598" y="286"/>
      <point x="656" y="373" type="curve"/>
      <point x="659" y="380"/>
      <point x="660" y="384"/>
      <point x="660" y="388" type="curve" smooth="yes"/>
      <point x="660" y="397"/>
      <point x="656" y="402"/>
      <point x="648" y="402" type="curve" smooth="yes"/>
      <point x="631" y="402"/>
      <point x="599" y="355"/>
      <point x="541" y="355" type="curve" smooth="yes"/>
      <point x="457" y="355"/>
      <point x="300" y="444"/>
      <point x="175" y="444" type="curve" smooth="yes"/>
      <point x="82" y="444"/>
      <point x="22" y="386"/>
      <point x="-30" y="299" type="curve"/>
      <point x="-35" y="294"/>
      <point x="-36" y="288"/>
      <point x="-36" y="284" type="curve" smooth="yes"/>
      <point x="-36" y="277"/>
      <point x="-30" y="271"/>
      <point x="-22" y="271" type="curve" smooth="yes"/>
      <point x="-6" y="271"/>
      <point x="28" y="315"/>
      <point x="83" y="315" type="curve" smooth="yes"/>
      <point x="196" y="315"/>
      <point x="337" y="228"/>
    </contour>
  </outline>
</glyph>
<glyph name="quotedblleft" format="1">
  <advance width="872"/>
  <unicode hex="201C"/>
  <outline>
    <contour>
      <point x="234" y="1093" type="curve" smooth="yes"/>
      <point x="307" y="1093"/>
      <point x="383" y="1143"/>
      <point x="383" y="1232" type="curve" smooth="yes"/>
      <point x="383" y="1283"/>
      <point x="349" y="1333"/>
      <point x="280" y="1354" type="curve"/>
      <point x="280" y="1432"/>
      <point x="302" y="1486"/>
      <point x="353" y="1541" type="curve"/>
      <point x="328" y="1567" type="line"/>
      <point x="223" y="1567"/>
      <point x="92" y="1374"/>
      <point x="92" y="1240" type="curve" smooth="yes"/>
      <point x="92" y="1140"/>
      <point x="163" y="1093"/>
    </contour>
    <contour>
      <point x="635" y="1093" type="curve" smooth="yes"/>
      <point x="710" y="1093"/>
      <point x="781" y="1143"/>
      <point x="781" y="1232" type="curve" smooth="yes"/>
      <point x="781" y="1283"/>
      <point x="751" y="1333"/>
      <point x="682" y="1354" type="curve"/>
      <point x="682" y="1432"/>
      <point x="702" y="1486"/>
      <point x="754" y="1541" type="curve"/>
      <point x="729" y="1567" type="line"/>
      <point x="625" y="1567"/>
      <point x="493" y="1374"/>
      <point x="493" y="1240" type="curve" smooth="yes"/>
      <point x="493" y="1140"/>
      <point x="566" y="1093"/>
    </contour>
  </outline>
</glyph>
<glyph name="quotedblright" format="1">
  <advance width="871"/>
  <unicode hex="201D"/>
  <outline>
    <contour>
      <point x="143" y="1093" type="line"/>
      <point x="247" y="1093"/>
      <point x="380" y="1285"/>
      <point x="380" y="1419" type="curve" smooth="yes"/>
      <point x="380" y="1519"/>
      <point x="306" y="1567"/>
      <point x="237" y="1567" type="curve" smooth="yes"/>
      <point x="162" y="1567"/>
      <point x="91" y="1517"/>
      <point x="91" y="1428" type="curve" smooth="yes"/>
      <point x="91" y="1377"/>
      <point x="121" y="1327"/>
      <point x="190" y="1306" type="curve"/>
      <point x="190" y="1228"/>
      <point x="170" y="1174"/>
      <point x="118" y="1119" type="curve"/>
    </contour>
    <contour>
      <point x="544" y="1093" type="line"/>
      <point x="649" y="1093"/>
      <point x="780" y="1285"/>
      <point x="780" y="1419" type="curve" smooth="yes"/>
      <point x="780" y="1519"/>
      <point x="709" y="1567"/>
      <point x="638" y="1567" type="curve" smooth="yes"/>
      <point x="565" y="1567"/>
      <point x="491" y="1517"/>
      <point x="491" y="1428" type="curve" smooth="yes"/>
      <point x="491" y="1377"/>
      <point x="523" y="1327"/>
      <point x="592" y="1306" type="curve"/>
      <point x="592" y="1228"/>
      <point x="570" y="1174"/>
      <point x="519" y="1119" type="curve"/>
    </contour>
  </outline>
</glyph>
